<?xml version="1.0" encoding="utf-8"?>
<!-- Generator: Adobe Illustrator 15.1.0, SVG Export Plug-In . SVG Version: 6.00 Build 0)  -->
<!DOCTYPE svg PUBLIC "-//W3C//DTD SVG 1.1//EN" "http://www.w3.org/Graphics/SVG/1.1/DTD/svg11.dtd">
<svg version="1.1" id="Layer_1" xmlns="http://www.w3.org/2000/svg" xmlns:xlink="http://www.w3.org/1999/xlink" x="0px" y="0px"
	 width="48px" height="48px" viewBox="-0.5 0.5 48 48" enable-background="new -0.5 0.5 48 48" xml:space="preserve">
<path d="M20.55,33.6L34.7,19.45l-2.3-2.25L20.55,29.05l-6-6L12.3,25.3L20.55,33.6z M23.5,44.5c-2.733,0-5.316-0.525-7.75-1.575
	s-4.559-2.483-6.375-4.3s-3.25-3.941-4.3-6.375C4.025,29.816,3.5,27.233,3.5,24.5c0-2.767,0.525-5.367,1.575-7.8
	c1.05-2.434,2.483-4.55,4.3-6.35c1.816-1.8,3.941-3.225,6.375-4.275C18.184,5.025,20.767,4.5,23.5,4.5
	c2.767,0,5.367,0.525,7.8,1.575c2.434,1.05,4.55,2.475,6.351,4.275c1.8,1.8,3.225,3.917,4.274,6.35
	c1.05,2.433,1.575,5.033,1.575,7.8c0,2.733-0.525,5.316-1.575,7.75s-2.475,4.559-4.274,6.375c-1.801,1.816-3.917,3.25-6.351,4.3
	C28.867,43.975,26.267,44.5,23.5,44.5z M23.5,41.5c4.733,0,8.75-1.658,12.05-4.975S40.5,29.2,40.5,24.5
	c0-4.733-1.65-8.75-4.95-12.05c-3.3-3.3-7.316-4.95-12.05-4.95c-4.7,0-8.708,1.65-12.025,4.95C8.158,15.75,6.5,19.767,6.5,24.5
	c0,4.7,1.658,8.709,4.975,12.025C14.792,39.842,18.8,41.5,23.5,41.5z"/>
</svg>
